<?xml version="1.0" encoding="utf-8"?>
<!-- Generator: Adobe Illustrator 23.0.6, SVG Export Plug-In . SVG Version: 6.00 Build 0)  -->
<svg version="1.1" id="Layer_1" xmlns="http://www.w3.org/2000/svg" xmlns:xlink="http://www.w3.org/1999/xlink" x="0px" y="0px"
	 viewBox="0 0 240 148" style="enable-background:new 0 0 240 148;" xml:space="preserve">
<style type="text/css">
	.st0{display:none;}
	.st1{display:inline;}
</style>
<g id="document" transform="matrix(1,0,0,1,1024.0,1024.0)">
	<path d="M-838.8-985.37c-15.07,0-29.16,6.32-38.89,16.04c-8.51-31.6-37.67-55.17-71.94-55.17c-41.07,0-74.37,33.3-74.37,74.37
		c0,41.07,33.3,74.13,74.37,74.13h110.83c30.38,0,54.93-24.55,54.93-54.93C-783.88-961.31-808.42-985.37-838.8-985.37z
		 M-982.77-948.56c18.94,18.94,49.63,18.94,68.57,0l8.57,8.57c-23.66,23.66-62.06,23.66-85.72,0L-982.77-948.56z"/>
</g>
<g class="st0">
	<path class="st1" d="M324.9,147.89c-15.22,0-27.85-5.16-37.9-15.5c-9.91-10.61-14.87-23.66-14.87-39.16
		c0-15.77,4.95-28.82,14.87-39.16c10.05-10.33,22.68-15.49,37.9-15.49c10.47,0,19.61,2.62,27.43,7.85
		c7.82,5.23,13.68,12.46,17.59,21.67l-17.59,7.33c-5.44-12.84-15.01-19.26-28.69-19.26c-8.79,0-16.4,3.56-22.82,10.68
		c-6.28,7.12-9.42,15.91-9.42,26.38c0,10.47,3.14,19.26,9.42,26.38c6.42,7.12,14.03,10.68,22.82,10.68
		c14.1,0,24.01-6.42,29.73-19.26l17.17,7.33c-3.77,9.21-9.67,16.44-17.69,21.67C344.82,145.27,335.5,147.89,324.9,147.89z"/>
	<path class="st1" d="M401.45-5.38v149.92h-19.26V-5.38H401.45z"/>
	<path class="st1" d="M467.3,147.89c-15.08,0-27.5-5.16-37.27-15.5c-9.77-10.33-14.66-23.38-14.66-39.16
		c0-15.63,4.74-28.65,14.24-39.05c9.49-10.4,21.64-15.6,36.43-15.6c15.21,0,27.33,4.92,36.33,14.76s13.51,23.63,13.51,41.35
		l-0.21,2.09h-80.61c0.28,10.05,3.63,18.15,10.05,24.29c6.42,6.14,14.1,9.21,23.03,9.21c12.28,0,21.91-6.14,28.9-18.43l17.17,8.38
		c-4.61,8.66-10.99,15.43-19.16,20.31C486.88,145.45,477.63,147.89,467.3,147.89z M436.52,80.89h58.84
		c-0.56-7.12-3.46-13.02-8.69-17.69c-5.23-4.67-12.25-7.01-21.04-7.01c-7.26,0-13.51,2.23-18.74,6.7
		C441.65,67.35,438.19,73.35,436.52,80.89z"/>
	<path class="st1" d="M568.08,38.59c14.24,0,25.47,3.81,33.71,11.41c8.24,7.61,12.35,18.04,12.35,31.3v63.24h-18.43V130.3h-0.84
		c-7.96,11.73-18.57,17.59-31.83,17.59c-11.31,0-20.76-3.35-28.37-10.05c-7.61-6.7-11.41-15.08-11.41-25.13
		c0-10.61,4.01-19.05,12.04-25.34c8.03-6.28,18.74-9.42,32.14-9.42c11.44,0,20.87,2.09,28.27,6.28v-4.4c0-6.7-2.65-12.39-7.96-17.07
		c-5.31-4.68-11.52-7.01-18.63-7.01c-10.75,0-19.26,4.54-25.55,13.61l-16.96-10.68C535.97,45.29,549.79,38.59,568.08,38.59z
		 M543.16,113.13c0,5.03,2.13,9.21,6.39,12.56c4.26,3.35,9.25,5.03,14.97,5.03c8.09,0,15.32-3,21.67-9c6.35-6,9.53-13.05,9.53-21.15
		c-6-4.74-14.38-7.12-25.13-7.12c-7.82,0-14.34,1.88-19.58,5.65C545.78,102.87,543.16,107.55,543.16,113.13z"/>
	<path class="st1" d="M651.62,144.54h-19.26V41.94h18.43v16.75h0.84c1.95-5.44,5.97-10.08,12.04-13.92
		c6.07-3.84,12.04-5.76,17.9-5.76c5.58,0,10.33,0.84,14.24,2.51l-5.86,18.64c-2.38-0.97-6.14-1.47-11.31-1.47
		c-7.26,0-13.58,2.93-18.95,8.79c-5.38,5.86-8.06,12.7-8.06,20.52V144.54z"/>
	<path class="st1" d="M747.48,147.89c-15.22,0-27.85-5.16-37.9-15.5c-9.91-10.61-14.87-23.66-14.87-39.16
		c0-15.77,4.95-28.82,14.87-39.16c10.05-10.33,22.68-15.49,37.9-15.49c10.47,0,19.61,2.62,27.43,7.85
		c7.82,5.23,13.68,12.46,17.59,21.67l-17.59,7.33c-5.44-12.84-15.01-19.26-28.69-19.26c-8.79,0-16.4,3.56-22.82,10.68
		c-6.28,7.12-9.42,15.91-9.42,26.38c0,10.47,3.14,19.26,9.42,26.38c6.42,7.12,14.03,10.68,22.82,10.68
		c14.1,0,24.01-6.42,29.73-19.26l17.17,7.33c-3.77,9.21-9.67,16.44-17.69,21.67C767.4,145.27,758.09,147.89,747.48,147.89z"/>
	<path class="st1" d="M846.1,38.59c14.24,0,25.47,3.81,33.71,11.41c8.24,7.61,12.35,18.04,12.35,31.3v63.24h-18.43V130.3h-0.84
		c-7.96,11.73-18.57,17.59-31.83,17.59c-11.31,0-20.76-3.35-28.37-10.05c-7.61-6.7-11.41-15.08-11.41-25.13
		c0-10.61,4.01-19.05,12.04-25.34c8.03-6.28,18.74-9.42,32.14-9.42c11.44,0,20.87,2.09,28.27,6.28v-4.4c0-6.7-2.65-12.39-7.96-17.07
		c-5.31-4.68-11.52-7.01-18.63-7.01c-10.75,0-19.26,4.54-25.55,13.61l-16.96-10.68C813.99,45.29,827.81,38.59,846.1,38.59z
		 M821.18,113.13c0,5.03,2.13,9.21,6.39,12.56c4.26,3.35,9.25,5.03,14.97,5.03c8.09,0,15.32-3,21.67-9c6.35-6,9.53-13.05,9.53-21.15
		c-6-4.74-14.38-7.12-25.13-7.12c-7.82,0-14.34,1.88-19.58,5.65C823.8,102.87,821.18,107.55,821.18,113.13z"/>
	<path class="st1" d="M929.79-5.38v149.92h-19.26V-5.38H929.79z"/>
	<path class="st1" d="M968.28-5.38v149.92h-19.26V-5.38H968.28z"/>
</g>
</svg>
